<svg xmlns="http://www.w3.org/2000/svg" width="37.07" height="36" viewBox="0 0 256 256">
  <!-- 圆形背景 -->
  <circle cx="128" cy="128" r="120" fill="#1890ff"/>
  
  <!-- 云朵形状 -->
  <path d="M180 140c5.5 0 10.6 1.5 15 4.1 4.4 2.6 7.9 6.3 10.2 10.9 2.3 4.6 3 9.7 2 14.7-1 5-3.6 9.5-7.4 12.9-3.8 3.4-8.7 5.4-13.8 5.4H80c-6.6 0-12.9-2.6-17.6-7.3C57.6 175.9 55 169.6 55 163c0-6.6 2.6-12.9 7.3-17.6 4.7-4.7 11-7.3 17.6-7.3 1.7 0 3.4 0.2 5 0.5 1.6-5.8 4.6-11.2 8.6-15.6 4-4.4 9-7.8 14.5-9.8 5.5-2 11.4-2.6 17.2-1.6 5.8 1 11.2 3.4 15.6 7.1 4.4 3.7 7.8 8.4 9.8 13.8 1.1 2.9 1.8 5.9 2.1 9 4.8-1.4 9.9-1.4 14.7 0 4.8 1.4 9.1 4.1 12.6 7.8" fill="white" fill-opacity="0.3"/>
  
  <!-- B字母（百度） -->
  <path d="M90 90c0-11 9-20 20-20h20c11 0 20 9 20 20v10h-20c-5.5 0-10 4.5-10 10s4.5 10 10 10h20v10c0 11-9 20-20 20h-20c-11 0-20-9-20-20v-10h20c5.5 0 10-4.5 10-10s-4.5-10-10-10H90V90z" fill="white"/>
  
  <!-- 音符 -->
  <circle cx="170" cy="140" r="15" fill="white"/>
  <path d="M185 140V80l-30 10v50" stroke="white" stroke-width="8" fill="none"/>
  <circle cx="155" cy="140" r="15" fill="white"/>
  
  <!-- 音波 -->
  <path d="M60 128 Q80 100, 100 128 Q120 156, 140 128" stroke="white" stroke-width="4" fill="none"/>
  <path d="M70 128 Q90 110, 110 128 Q130 146, 150 128" stroke="white" stroke-width="3" fill="none"/>
</svg>
